P3
# CREATOR: GIMP PNM Filter Version 1.1
6 6
255
0
0
0
1
1
1
255
255
255
255
255
255
0
0
0
0
0
0
0
0
0
1
1
1
255
255
255
1
1
1
0
0
0
0
0
0
0
0
0
0
0
0
255
255
255
0
0
0
0
0
0
0
0
0
255
255
255
0
0
0
255
255
255
0
0
0
255
255
255
1
1
1
0
0
0
255
255
255
255
255
255
255
255
255
0
0
0
0
0
0
0
0
0
0
0
0
255
255
255
0
0
0
0
0
0
1
1
1
