P3
# CREATOR: GIMP PNM Filter Version 1.1
26 22
255
241
205
119
237
199
118
246
197
130
222
177
109
229
197
120
213
190
114
209
188
125
135
122
87
184
185
187
206
222
238
210
235
242
210
240
240
220
251
245
209
238
233
209
232
238
221
239
249
219
237
241
231
249
253
224
241
248
229
247
251
233
249
249
238
250
248
242
253
249
239
247
249
237
246
253
237
245
255
239
203
119
249
208
128
220
172
98
232
185
113
232
197
116
220
191
113
226
198
133
193
176
133
201
201
193
205
218
226
212
232
241
212
240
244
216
245
243
207
236
234
216
239
245
219
239
246
219
237
241
232
247
252
229
246
253
226
244
248
238
252
252
241
253
249
240
251
247
238
248
247
238
247
252
238
247
255
248
211
130
223
182
100
239
188
105
235
184
101
228
186
100
226
188
107
228
191
121
218
191
138
177
168
139
208
213
206
217
230
239
208
227
241
224
248
255
212
237
242
213
238
245
213
236
242
220
238
242
232
245
251
232
247
254
229
242
248
232
246
246
237
249
245
241
252
246
240
251
247
237
247
249
236
247
251
242
205
125
224
183
101
229
181
97
230
182
97
233
192
104
254
216
131
227
188
111
233
202
138
200
183
137
193
189
162
231
235
236
219
228
243
221
237
252
221
241
252
208
231
237
215
236
241
221
236
239
237
251
254
230
243
249
232
243
247
237
249
249
242
254
250
238
250
246
241
253
249
235
246
248
235
246
250
236
200
122
212
175
95
236
195
116
214
176
95
239
209
119
245
215
125
229
194
112
236
204
131
228
204
140
205
191
146
226
218
205
240
239
244
232
236
248
219
231
243
219
234
241
223
241
243
224
238
239
242
253
255
231
242
246
236
245
250
239
249
250
234
246
246
240
252
252
236
247
249
235
246
252
235
245
254
228
192
114
240
203
125
206
167
90
234
197
117
243
216
129
225
197
113
247
213
141
241
205
143
198
167
112
154
129
88
139
121
101
144
130
127
243
234
239
225
220
226
221
223
222
239
243
242
246
252
250
244
250
248
250
254
255
249
253
255
251
255
255
247
255
255
246
255
255
237
248
250
236
247
253
236
246
255
241
203
128
207
168
91
231
188
109
250
209
129
236
201
119
244
210
139
215
174
128
189
148
118
176
138
115
160
127
108
140
111
95
139
111
99
158
131
120
180
156
146
186
164
153
126
109
99
57
48
41
39
34
28
27
19
17
47
39
37
69
68
66
160
162
159
249
255
255
241
253
253
235
246
248
235
246
250
238
199
124
211
169
93
249
203
125
230
186
111
238
201
131
222
187
133
213
176
147
172
135
119
171
133
122
193
155
144
214
177
161
206
167
150
205
163
149
206
167
152
208
176
163
186
160
147
169
150
136
155
137
127
153
133
126
118
99
93
57
43
40
32
29
24
55
60
56
248
255
255
235
245
246
234
246
246
228
186
114
231
187
114
242
194
122
228
182
120
212
175
130
186
155
124
151
127
103
190
165
145
220
189
168
244
208
186
235
190
171
231
182
167
228
175
167
225
178
172
180
147
140
201
174
163
182
153
137
203
170
153
195
159
145
188
154
144
141
116
109
58
45
37
53
52
47
97
103
99
249
255
255
237
247
246
235
195
125
228
185
116
195
147
83
185
139
89
184
145
116
159
126
109
162
136
119
193
167
150
218
187
167
224
186
165
228
181
161
241
188
174
244
185
179
222
169
165
184
145
140
211
179
168
207
170
152
215
174
154
225
179
163
204
162
150
148
118
108
63
44
37
61
58
51
35
40
34
225
231
229
244
250
248
245
206
137
228
187
123
229
184
129
214
166
126
161
116
97
175
135
125
220
184
172
233
197
185
212
169
160
169
122
112
210
161
147
231
177
165
245
184
179
209
148
145
206
156
147
188
144
131
229
188
170
230
187
168
224
175
160
223
176
166
155
120
114
71
50
45
70
65
61
56
58
55
138
140
137
246
248
245
227
194
117
232
195
127
223
183
132
189
146
112
170
127
111
183
140
133
221
181
171
208
165
156
196
147
143
190
139
135
217
167
156
194
142
129
198
137
132
192
132
124
209
156
142
231
184
166
239
198
180
238
195
179
221
172
158
225
178
170
219
184
178
80
59
54
27
22
18
38
41
34
109
110
102
255
255
246
250
220
132
232
203
127
203
169
121
201
166
136
160
125
106
175
141
129
212
176
162
224
184
174
187
137
130
200
147
141
210
162
148
240
191
177
222
165
158
215
158
147
237
189
169
244
202
180
235
196
179
225
183
171
233
185
175
230
183
177
230
195
191
88
69
63
34
31
22
42
46
32
136
137
119
158
160
139
217
190
101
225
196
118
196
164
107
187
152
112
167
132
102
163
128
106
177
146
128
222
186
172
210
164
151
174
124
113
202
156
141
203
155
141
214
157
150
200
146
136
202
159
142
230
192
171
234
195
178
229
185
172
222
170
159
225
176
169
219
184
178
124
104
97
41
38
29
42
46
31
116
118
96
161
161
135
229
200
122
227
193
119
225
183
111
250
204
142
204
158
109
161
121
85
161
131
107
172
144
123
220
185
163
231
193
172
224
181
165
241
193
183
223
166
159
242
189
183
169
131
122
198
164
152
240
199
181
229
181
161
227
170
153
226
173
159
213
173
165
132
109
101
58
54
43
48
52
37
133
136
115
152
154
130
234
202
127
230
194
116
243
201
119
227
179
103
246
198
136
233
191
143
199
169
133
176
150
117
196
166
128
238
203
171
222
181
161
228
184
171
220
170
161
226
179
171
172
135
127
211
177
167
221
182
165
221
176
157
221
170
153
207
159
145
186
152
142
107
87
78
56
52
41
61
65
51
144
147
130
135
138
117
238
206
121
232
197
113
233
195
110
228
190
109
220
181
112
210
174
114
201
168
115
206
174
123
188
153
97
163
127
77
195
159
127
194
158
136
214
177
161
221
184
168
188
152
136
194
158
144
210
177
162
199
167
154
195
163
152
173
145
134
119
99
92
57
44
36
56
53
44
127
129
118
124
128
114
125
129
114
232
197
113
222
186
102
218
180
95
219
182
101
221
185
111
219
182
112
215
177
112
215
177
112
232
194
123
243
207
145
183
150
109
164
134
108
142
117
97
174
151
135
168
140
126
130
102
88
150
126
114
154
132
121
135
117
107
87
73
64
42
33
26
75
70
64
135
135
127
129
132
123
126
132
122
127
135
124
240
202
129
235
196
121
229
188
108
229
186
107
226
184
108
225
183
107
231
187
112
235
192
114
226
185
103
214
177
106
217
189
142
194
173
144
180
169
151
127
121
109
121
114
104
110
101
92
69
56
47
59
46
37
58
49
40
57
53
44
102
99
92
143
144
138
129
134
127
130
137
129
128
138
129
128
140
130
241
207
136
234
198
124
225
186
107
235
192
113
244
201
123
245
199
121
240
193
113
228
181
99
230
186
99
223
185
110
201
175
126
203
188
159
171
170
152
165
171
161
148
153
149
149
151
146
153
153
143
160
158
146
151
151
141
150
151
143
142
145
138
127
134
127
129
138
133
128
139
133
131
144
137
132
145
136
237
209
135
242
213
135
242
209
128
243
206
125
239
198
119
230
187
108
231
184
104
227
181
96
232
188
101
229
191
116
206
179
132
202
191
163
168
170
156
154
164
156
147
159
157
141
152
148
147
154
146
140
146
136
139
144
137
134
141
134
135
144
139
136
145
140
129
140
136
135
147
143
135
147
143
136
149
142
240
217
139
242
217
137
241
210
127
240
205
121
239
200
121
239
196
117
242
195
115
240
194
109
237
191
105
216
178
103
215
191
145
192
180
154
178
182
168
159
172
165
156
170
170
149
164
161
143
154
146
144
154
143
151
161
153
146
156
148
140
151
147
147
158
154
146
158
156
144
156
154
148
160
156
149
161
157
