P3
# neuf
3 5
255
0
0
0
0
0
0
0
0
0
0
0
0
255
255
255
0
0
0
0
0
0
2
2
2
0
0
0
255
255
255
255
255
255
0
0
0
0
0
0
0
0
0
0
0
0
