P3
# CREATOR: GIMP PNM Filter Version 1.1
6 6
255
255
255
255
255
255
255
255
255
255
255
255
255
255
255
255
255
255
255
253
253
253
255
255
255
255
255
255
0
0
0
255
255
255
255
255
255
0
0
0
255
255
255
255
255
255
255
255
255
0
0
0
255
255
255
0
0
0
0
0
0
2
2
2
0
0
0
0
0
0
1
1
1
255
255
255
254
254
254
254
254
254
255
255
255
0
0
0
255
255
255
255
255
255
255
255
255
254
254
254
0
0
0
255
255
255
254
254
254
