P3
# CREATOR: GIMP PNM Filter Version 1.1
80 20
255
0
1
171
0
1
171
0
0
172
0
1
171
0
1
171
0
1
170
0
1
170
0
0
172
0
1
171
0
1
171
0
1
171
2
0
171
0
1
171
0
1
171
0
1
171
0
1
171
0
1
171
0
1
171
0
1
171
0
1
171
0
1
171
0
0
172
0
1
171
0
0
172
0
1
171
0
1
171
0
1
171
0
1
171
1
2
172
2
3
171
28
29
150
176
177
206
109
112
148
94
98
151
154
155
202
134
135
163
137
143
178
153
157
191
102
105
157
136
137
175
144
147
184
143
146
180
149
151
185
138
140
176
173
173
186
165
167
178
60
62
174
0
0
167
1
0
172
0
1
172
0
1
171
0
1
171
0
1
171
0
1
171
0
1
171
0
1
171
0
1
171
0
1
171
0
1
171
0
1
171
0
1
171
0
1
171
0
1
171
0
1
171
0
1
171
0
1
171
0
1
171
0
1
172
0
1
171
0
1
171
0
1
171
0
1
171
0
1
171
0
1
171
0
1
171
0
1
170
1
0
170
0
1
171
0
1
171
0
1
171
1
2
172
1
2
172
1
2
172
1
2
172
0
1
172
0
2
171
1
2
172
0
2
172
1
2
172
1
2
172
0
2
172
2
1
172
0
2
172
1
2
172
0
2
172
0
2
172
0
2
172
1
2
171
0
1
172
1
2
172
1
2
172
0
2
173
1
2
172
1
2
172
1
2
172
1
2
172
0
2
172
0
2
172
0
2
172
0
2
173
30
32
150
180
181
205
125
128
161
95
100
152
162
164
208
135
137
174
114
118
174
109
114
171
118
120
180
119
120
173
114
118
167
93
95
156
109
111
166
115
120
171
172
177
191
171
172
178
63
62
174
0
0
168
0
2
172
0
1
172
0
2
172
0
2
173
0
1
172
1
2
172
1
2
172
0
2
172
0
2
172
0
2
172
0
2
172
1
2
172
1
2
172
1
2
172
0
2
172
1
2
172
0
2
172
1
2
172
0
2
173
0
2
172
1
2
172
0
2
172
0
2
172
1
2
172
1
2
172
0
2
171
0
1
171
0
1
171
1
2
172
1
2
172
0
2
172
1
1
172
1
3
173
1
3
173
1
3
173
1
3
174
1
3
174
0
3
173
1
3
173
1
3
173
1
3
174
1
3
173
0
2
171
0
0
169
0
2
171
0
1
171
1
3
173
1
3
174
0
4
173
1
3
173
1
3
173
0
0
164
0
0
165
0
0
164
0
2
170
1
3
173
0
0
167
0
3
172
0
3
173
0
3
173
0
3
173
0
3
173
21
22
158
98
100
180
97
97
167
98
97
171
95
97
169
93
95
169
92
94
170
93
96
171
93
94
169
93
94
172
93
94
168
90
92
167
91
93
166
85
89
163
94
99
167
97
99
170
36
37
171
0
0
170
0
2
170
0
0
169
1
4
173
0
1
169
0
0
165
0
0
166
0
0
164
0
0
165
0
0
165
0
0
164
0
2
170
0
2
170
0
0
167
0
0
165
0
0
164
0
0
167
0
0
164
0
0
166
0
0
168
0
0
168
0
0
166
0
0
164
0
0
166
0
0
165
0
0
166
0
0
167
0
1
171
0
1
171
0
1
169
0
2
172
0
3
173
1
3
173
5
5
169
7
8
169
13
13
161
10
11
167
11
12
165
11
12
167
11
12
170
13
14
161
13
16
171
14
14
162
29
30
169
59
61
187
24
27
171
31
34
175
11
12
166
10
11
166
12
14
165
4
6
171
2
4
166
103
106
203
91
94
191
110
112
212
23
26
177
2
5
169
71
74
183
23
25
158
13
14
171
12
13
165
12
13
165
6
9
172
5
5
170
9
9
163
9
10
171
11
12
169
8
11
166
8
10
165
10
10
162
11
11
163
12
11
167
9
10
163
9
12
167
10
12
167
9
12
161
51
54
181
50
52
193
0
0
168
5
6
169
9
11
160
35
37
175
45
48
183
0
0
162
44
46
176
101
101
204
84
86
192
89
92
187
91
94
198
89
94
203
104
107
201
28
31
169
35
38
180
77
79
184
77
81
200
94
96
198
83
83
177
101
104
195
82
85
183
67
69
189
50
54
174
88
89
185
106
106
205
63
65
186
88
89
199
89
91
197
65
66
192
2
3
169
5
6
171
47
47
184
20
20
165
13
13
166
7
7
172
5
6
168
43
45
177
138
143
220
86
89
188
120
122
212
102
105
203
64
65
173
156
163
223
117
122
202
138
142
215
71
71
182
101
103
203
50
53
178
89
91
195
109
111
208
98
99
189
134
136
216
32
33
176
2
4
163
151
154
222
120
123
197
123
126
210
9
10
164
2
4
171
88
90
184
118
121
186
134
138
218
103
104
193
115
117
210
12
14
165
21
22
169
117
121
199
105
108
199
105
106
204
77
79
192
87
88
192
115
118
190
121
125
183
114
116
195
92
92
188
103
106
194
106
107
196
121
124
211
136
139
217
68
69
187
0
0
164
57
60
189
124
128
205
71
72
183
73
77
192
0
0
161
67
68
191
143
144
211
128
127
205
132
133
198
77
79
172
80
82
188
133
135
214
35
35
167
46
50
178
92
94
182
51
51
174
133
135
208
121
123
188
152
156
212
79
79
184
87
88
199
28
28
160
113
114
191
124
126
218
30
32
162
96
96
197
113
115
203
98
100
186
2
3
166
11
13
174
81
81
187
104
107
191
130
132
212
6
6
161
1
1
164
8
8
165
28
28
172
28
28
173
29
29
172
26
27
167
19
21
162
28
30
158
42
42
170
70
72
183
17
16
169
31
31
177
20
21
171
26
26
170
33
35
175
23
25
166
31
33
173
9
11
171
0
1
168
33
35
176
30
32
168
35
39
178
8
11
171
0
2
165
25
26
171
33
34
166
34
37
170
29
29
169
32
34
170
7
8
167
7
8
167
29
30
167
26
29
170
30
32
167
27
27
171
28
29
171
36
36
172
34
36
170
23
24
167
21
21
171
13
12
161
26
24
169
27
27
168
34
34
173
28
28
178
0
1
169
19
21
174
36
38
175
14
13
164
22
23
171
0
0
166
16
17
173
25
26
167
29
30
171
28
31
167
37
38
174
20
21
169
33
34
175
14
15
171
23
26
172
26
28
171
30
30
176
31
32
172
28
28
168
32
33
172
26
26
171
30
31
175
20
21
168
34
35
172
36
39
179
29
30
177
31
31
173
27
28
171
32
33
169
0
1
167
4
6
170
22
23
166
28
28
168
31
32
175
8
8
169
100
101
203
49
50
179
2
3
169
2
4
173
0
2
169
85
87
200
101
103
196
113
112
210
16
19
158
29
30
168
12
10
172
6
9
167
24
25
170
26
26
173
25
24
173
19
20
170
30
31
178
26
29
171
30
31
176
26
24
166
25
27
172
26
27
170
23
24
165
81
83
194
0
0
167
8
11
171
31
33
180
19
20
165
25
26
168
26
27
173
23
23
167
63
64
192
30
31
173
82
83
200
10
12
166
26
27
176
30
32
177
17
19
163
69
70
188
26
27
171
79
81
200
10
11
162
28
30
175
27
26
171
13
14
167
1
3
171
10
12
166
22
24
165
18
18
172
61
60
184
74
76
200
17
19
161
109
111
216
0
0
164
0
0
161
122
125
228
17
18
159
26
29
170
12
15
171
1
4
170
41
42
181
56
59
177
35
37
178
18
17
167
30
31
172
30
32
171
24
25
165
23
23
171
60
61
179
25
29
163
14
14
163
30
31
172
61
61
186
36
38
173
28
30
171
22
22
164
86
88
198
17
19
169
2
5
172
1
2
170
125
127
209
79
82
182
10
11
167
2
4
171
0
2
171
58
60
174
28
29
154
130
128
217
123
127
211
133
139
223
22
23
168
15
17
167
96
99
185
73
74
188
128
129
220
66
67
180
100
104
202
118
118
210
50
51
169
139
141
224
103
106
198
126
129
216
46
48
172
97
99
196
0
0
166
7
6
168
129
130
207
110
113
192
126
128
210
116
119
187
116
118
192
62
62
185
31
30
169
121
125
204
49
49
173
76
75
187
103
105
199
112
116
187
74
76
190
26
28
168
115
117
202
94
95
184
80
81
196
114
114
189
111
114
194
0
0
162
74
77
194
150
153
230
18
20
152
96
94
183
75
77
196
19
20
160
114
114
207
0
0
163
0
0
164
118
117
214
119
123
213
138
142
222
35
34
173
1
3
171
40
42
171
90
94
187
117
121
214
88
89
184
112
112
208
116
120
205
154
154
229
24
22
157
109
112
186
117
119
213
87
90
191
135
138
211
75
77
188
34
37
168
153
156
213
111
111
202
127
128
216
21
23
168
11
12
173
1
0
170
35
36
175
30
32
172
28
27
175
7
8
170
1
3
173
21
23
173
21
21
169
40
41
181
35
35
175
35
38
177
9
12
172
9
11
170
33
35
173
27
29
171
41
43
178
29
31
172
29
31
172
37
36
177
8
7
162
34
37
178
31
33
174
32
35
174
19
19
168
31
32
177
0
2
172
9
8
173
40
42
170
57
59
178
57
60
177
76
79
182
48
50
176
25
27
174
18
18
173
42
43
176
21
22
168
37
39
179
41
41
175
34
36
172
23
23
172
19
21
173
41
45
177
27
29
170
32
34
175
30
30
167
33
34
175
1
3
168
21
24
173
45
48
176
17
17
169
34
35
175
31
32
178
13
13
169
41
43
181
7
9
171
3
4
167
42
42
181
32
34
173
35
37
178
13
13
171
2
3
173
12
14
171
27
28
170
37
39
178
24
26
172
32
34
173
25
25
168
38
38
175
15
16
169
36
36
173
32
32
175
30
31
172
40
42
174
28
29
171
19
20
173
39
41
176
31
33
174
38
39
176
18
18
170
25
25
179
0
0
169
0
1
171
1
2
170
1
2
170
1
2
171
0
1
171
0
1
171
0
1
171
2
0
171
0
1
169
1
1
169
0
2
171
1
2
170
2
1
170
0
2
169
0
1
169
1
2
169
1
2
170
0
1
170
0
1
170
0
1
170
1
2
170
0
1
171
1
2
170
0
1
170
0
1
171
1
2
172
0
1
169
3
4
169
3
4
168
5
7
168
2
3
169
0
1
171
1
2
171
0
1
171
1
2
170
0
2
169
1
2
170
0
1
170
1
2
171
1
2
170
0
1
170
1
2
171
0
2
169
0
1
170
0
1
171
0
2
171
1
1
171
1
1
170
1
2
170
0
1
171
0
1
171
1
2
171
0
1
171
1
2
171
0
2
170
0
1
171
1
2
170
0
1
170
0
1
171
0
1
169
1
2
170
1
1
170
0
1
169
1
2
171
0
1
171
1
2
170
0
1
169
0
3
170
1
1
170
0
1
169
2
0
170
0
2
169
1
2
169
1
1
170
0
1
170
1
2
171
0
2
169
0
1
170
0
1
171
0
1
171
0
1
170
0
1
171
0
1
171
0
0
172
0
1
171
0
1
171
0
1
171
0
1
171
0
1
171
0
1
171
0
1
171
0
1
171
0
1
171
0
1
171
0
1
169
0
1
171
0
1
171
0
1
171
0
1
171
0
1
171
0
1
171
0
1
171
0
1
171
0
1
171
0
1
171
0
1
171
0
1
171
1
1
172
0
1
171
0
1
171
0
1
171
0
1
171
0
1
171
0
1
171
0
1
171
0
1
171
0
1
171
0
1
171
0
1
171
0
1
171
0
1
171
0
1
171
0
1
171
0
1
171
0
1
171
0
1
171
0
1
171
0
1
171
0
1
171
0
0
172
0
1
171
0
1
171
0
0
172
0
1
171
0
1
172
0
1
171
0
0
172
0
1
171
0
1
170
0
1
171
0
1
171
0
1
171
0
1
171
0
1
171
0
1
171
0
1
171
0
1
171
0
1
171
0
1
171
0
1
171
0
1
171
0
1
171
0
1
171
0
1
171
0
1
171
0
1
171
0
1
172
0
1
171
0
1
171
0
1
171
0
2
171
0
1
170
1
2
172
1
2
172
0
1
170
0
2
171
0
1
170
0
1
172
0
1
172
1
3
173
5
7
171
0
1
170
0
2
169
0
1
169
0
2
171
0
1
171
1
4
173
0
1
168
0
2
171
0
1
171
0
2
170
1
4
173
0
3
171
0
2
168
0
1
170
0
2
172
0
1
167
0
0
169
0
0
169
1
3
171
3
5
171
0
1
169
0
2
171
0
0
170
0
2
170
0
2
170
0
0
170
0
1
170
1
4
173
0
1
171
0
1
168
4
7
172
0
2
170
0
1
170
0
1
171
1
4
173
0
2
171
0
1
170
0
1
171
0
1
171
0
0
169
0
1
170
0
0
169
0
2
170
0
1
171
0
0
171
0
1
170
0
0
169
2
2
173
0
1
171
0
1
170
0
1
171
0
1
170
0
1
171
0
0
170
3
4
173
2
5
171
0
3
171
3
5
173
0
0
168
0
3
172
0
0
170
0
1
170
0
2
170
2
5
171
1
3
171
0
1
169
0
1
170
0
0
170
1
4
173
43
43
177
36
39
181
2
4
171
6
7
169
47
49
184
33
36
177
32
33
171
38
40
171
28
31
178
0
0
163
83
85
189
50
51
179
37
41
178
41
45
179
24
25
175
31
34
176
0
3
167
86
89
193
40
43
178
42
44
178
27
29
176
0
2
167
26
30
172
91
94
197
35
39
176
33
34
174
55
59
181
58
61
183
54
56
184
14
15
165
77
80
191
39
42
172
17
18
163
54
54
186
40
43
177
68
71
194
47
47
183
37
39
173
2
2
166
30
31
174
95
98
195
53
54
182
68
70
189
45
48
181
29
32
179
0
4
168
22
25
175
50
52
186
37
41
176
36
38
176
53
55
183
41
43
180
61
63
192
42
43
179
37
38
176
50
52
180
45
48
175
81
82
196
20
21
173
1
4
170
18
19
171
35
36
177
47
50
181
28
31
168
48
51
177
40
42
176
68
68
194
26
28
171
59
62
182
53
58
192
13
14
162
43
46
181
68
69
192
39
43
173
56
59
186
38
41
179
45
47
179
38
40
175
48
49
186
2
2
164
82
84
190
62
65
188
0
0
164
66
70
188
132
135
213
67
67
174
121
125
187
123
128
192
86
90
207
0
0
158
89
89
187
138
137
208
109
109
182
101
104
204
96
97
198
80
82
191
0
0
162
87
89
185
32
33
160
127
132
217
58
61
171
0
3
168
10
14
159
114
116
200
89
90
197
94
95
181
116
117
212
61
60
179
166
170
242
16
16
149
115
119
192
93
95
205
108
114
210
148
151
224
55
56
176
58
60
180
125
128
201
98
102
205
0
0
163
20
21
172
97
100
194
55
54
172
134
137
221
116
118
206
92
93
193
0
0
162
64
66
186
53
53
174
122
124
221
107
109
206
70
71
190
36
36
169
105
106
194
76
76
187
105
108
189
118
120
206
114
117
212
70
71
187
18
19
174
2
4
168
104
107
196
78
77
177
112
114
182
111
116
186
126
131
207
72
75
187
79
80
195
19
21
152
131
133
188
54
54
165
79
81
190
134
136
209
71
71
182
40
43
170
71
73
192
73
77
189
121
126
209
103
105
190
121
121
200
24
23
175
28
30
173
27
28
172
5
6
168
12
14
162
54
57
184
28
29
170
31
33
166
106
106
198
16
17
163
9
12
170
33
35
181
23
24
167
29
30
169
29
32
165
97
98
205
0
1
154
14
16
173
10
12
171
22
23
175
41
44
176
29
33
174
18
21
175
19
19
173
31
32
171
31
32
174
23
24
167
39
40
184
10
9
168
25
26
168
14
15
169
34
36
180
25
25
173
21
22
166
35
36
178
21
21
174
18
19
173
33
34
175
27
28
174
0
1
169
1
2
168
26
28
174
25
25
172
20
21
168
36
38
177
16
16
171
0
0
169
15
16
173
39
40
182
24
24
169
35
36
176
23
23
169
23
23
173
31
32
173
18
19
169
26
28
172
24
25
172
24
24
167
14
15
167
10
11
172
0
1
170
16
18
166
29
29
169
106
108
198
21
22
155
93
95
199
16
16
164
27
28
173
19
20
170
28
29
171
40
40
179
13
13
160
35
35
176
25
26
168
14
14
167
25
24
172
24
25
172
31
32
175
23
25
177
26
27
177
24
24
176
45
49
174
37
39
178
1
2
166
65
66
185
53
57
182
81
85
186
66
68
174
110
107
204
96
98
196
50
51
175
6
9
167
50
50
170
80
82
183
63
62
180
90
90
182
14
14
159
103
105
203
36
37
178
33
34
172
104
107
186
84
85
184
98
101
199
53
55
179
55
56
181
0
2
166
10
12
170
36
39
178
39
39
176
52
53
183
23
24
168
40
42
179
43
43
178
35
37
173
55
57
185
18
21
172
0
0
162
95
96
191
24
28
165
50
54
183
21
24
174
7
7
168
33
37
172
56
59
181
50
51
184
37
39
173
54
56
180
68
71
184
57
58
186
24
25
168
44
45
171
57
58
178
41
41
176
101
104
209
4
6
163
2
3
167
39
41
166
44
47
181
50
53
180
45
48
175
43
44
176
44
44
175
51
54
181
2
4
164
10
11
165
52
55
175
48
50
180
49
50
180
65
67
176
52
55
175
47
50
172
43
43
170
40
44
172
67
70
190
39
42
174
55
54
180
43
47
171
66
68
185
10
12
171
0
1
170
2
3
170
85
88
199
67
69
188
0
0
160
86
90
194
65
66
178
88
90
181
35
36
154
146
146
223
120
122
198
92
95
188
26
30
168
112
116
202
117
120
191
83
83
194
122
124
196
54
55
171
77
80
184
53
56
183
74
76
185
132
135
190
108
108
191
119
122
208
68
70
183
92
96
199
16
19
172
9
11
164
145
149
215
109
112
193
123
124
205
115
117
202
118
119
209
66
66
186
47
47
177
128
131
207
71
75
188
0
0
161
105
108
187
33
35
164
132
135
214
50
52
179
6
4
167
60
61
187
77
79
189
111
111
211
90
92
186
101
103
202
85
88
184
54
56
170
119
121
216
121
124
211
71
71
188
10
12
153
124
128
225
2
4
163
0
0
163
114
116
194
117
120
212
123
126
209
119
123
205
126
127
213
61
62
181
42
45
178
0
2
165
26
28
174
98
97
190
90
92
195
123
123
214
130
129
205
138
140
207
113
118
209
121
126
213
111
116
200
77
78
189
39
42
171
153
157
210
110
115
200
64
65
175
10
13
171
24
27
182
0
1
170
21
22
170
22
22
170
5
5
168
3
6
163
37
39
178
15
15
166
16
16
172
24
25
175
18
20
170
32
36
180
7
9
166
0
0
162
16
16
173
16
17
171
31
32
178
18
18
170
22
22
173
4
5
164
0
0
160
28
31
174
30
32
173
33
36
178
24
26
172
36
38
178
6
8
168
7
7
170
30
31
167
46
48
176
90
92
196
21
23
159
26
27
168
22
22
170
18
16
169
14
15
166
11
13
170
6
7
170
13
13
168
23
23
175
22
22
170
11
10
170
6
3
172
21
20
175
17
18
170
34
35
176
13
14
166
27
27
174
12
14
164
15
15
169
17
19
165
25
26
170
29
28
175
10
11
167
28
29
169
5
6
172
3
4
168
85
88
192
8
7
154
24
24
174
13
14
163
27
29
170
27
26
171
18
20
173
9
11
171
6
6
166
32
31
179
22
21
171
21
22
170
20
21
166
36
37
168
85
87
202
12
11
159
28
29
170
18
18
167
9
9
170
25
26
171
22
23
167
22
23
174
13
12
176
16
18
174
0
0
169
7
11
168
10
10
166
53
56
180
28
28
172
53
57
180
33
37
175
45
48
178
0
3
167
13
15
171
45
48
177
43
45
171
57
57
179
44
44
177
25
26
169
62
64
186
21
25
168
41
42
170
52
52
177
46
51
180
60
63
182
58
58
184
0
0
169
10
11
169
63
66
190
36
40
171
39
41
164
95
95
189
41
44
174
44
46
173
43
46
169
65
67
188
62
62
177
27
29
163
63
69
186
36
39
171
59
61
188
42
44
179
43
44
179
50
51
178
41
44
173
56
58
181
8
9
168
0
1
167
63
66
184
12
13
162
56
58
182
21
24
173
1
2
169
28
31
172
40
40
178
64
64
193
15
17
164
94
96
203
0
0
163
6
6
170
43
42
180
39
42
171
52
53
178
42
45
173
52
56
177
29
30
171
48
50
183
73
73
186
11
11
160
51
52
180
36
38
175
42
44
168
60
63
183
42
43
175
62
61
184
34
36
170
50
52
181
44
46
174
41
43
169
59
61
182
28
28
177
0
1
167
1
2
169
0
2
170
0
1
171
9
9
170
38
40
178
136
139
213
45
45
169
127
130
217
110
112
208
96
99
191
1
4
167
33
35
177
128
133
219
101
104
190
122
125
198
86
89
188
89
91
194
139
143
224
73
75
185
110
112
206
137
140
216
104
110
197
125
127
214
67
68
187
0
2
168
14
15
166
106
109
209
70
74
170
118
121
180
128
128
195
50
53
176
123
128
212
119
121
190
48
49
166
128
128
201
108
109
206
138
142
224
63
64
183
68
70
186
64
65
187
81
82
189
127
128
216
99
103
195
124
128
210
23
23
172
0
0
164
101
103
191
22
23
161
126
130
224
58
62
192
0
0
160
113
116
216
96
100
200
89
91
203
21
23
162
130
133
219
0
1
163
0
1
163
124
125
205
115
120
189
126
128
197
99
99
188
137
140
217
45
47
176
69
71
191
116
118
195
32
32
164
105
108
198
94
97
197
124
126
205
64
66
181
58
60
181
104
105
204
82
82
185
101
102
207
96
97
190
117
120
187
107
111
204
77
80
192
20
25
174
2
3
170
0
0
172
0
1
171
